<svg xmlns="http://www.w3.org/2000/svg" width="235" height="235" viewBox="0 0 800 800">
  <g fill="none" stroke="#e2e8f0" stroke-opacity="0.15">
    <g stroke-width="17">
      <line x1="-8" y1="-8" x2="808" y2="808"/>
      <line x1="-8" y1="792" x2="808" y2="1608"/>
      <line x1="-8" y1="-808" x2="808" y2="8"/>
    </g>
    <g stroke-width="14">
      <line x1="-8" y1="67" x2="808" y2="883"/>
      <line x1="-8" y1="717" x2="808" y2="1533"/>
      <line x1="-8" y1="-733" x2="808" y2="83"/>
      <line x1="-8" y1="-83" x2="808" y2="733"/>
    </g>
    <g stroke-width="10">
      <line x1="-8" y1="167" x2="808" y2="983"/>
      <line x1="-8" y1="617" x2="808" y2="1433"/>
      <line x1="-8" y1="-633" x2="808" y2="183"/>
      <line x1="-8" y1="-183" x2="808" y2="633"/>
    </g>
    <g stroke-width="6">
      <line x1="-8" y1="267" x2="808" y2="1083"/>
      <line x1="-8" y1="517" x2="808" y2="1333"/>
      <line x1="-8" y1="-533" x2="808" y2="283"/>
      <line x1="-8" y1="-283" x2="808" y2="533"/>
    </g>
    <g stroke-width="3">
      <line x1="-8" y1="342" x2="808" y2="1158"/>
      <line x1="-8" y1="442" x2="808" y2="1258"/>
      <line x1="-8" y1="-458" x2="808" y2="358"/>
      <line x1="-8" y1="-358" x2="808" y2="458"/>
    </g>
  </g>
</svg>
